<?xml version="1.0" encoding="iso-8859-1"?>
<!-- Uploaded to: SVG Repo, www.svgrepo.com, Generator: SVG Repo Mixer Tools -->
<svg fill="#000000" version="1.1" id="Layer_1" xmlns="http://www.w3.org/2000/svg" xmlns:xlink="http://www.w3.org/1999/xlink" 
	 viewBox="0 0 511.999 511.999" xml:space="preserve">
<g>
	<g>
		<rect x="404.661" y="336.684" transform="matrix(0.5 -0.866 0.866 0.5 -93.7079 539.2849)" width="31.052" height="28.226"/>
	</g>
</g>
<g>
	<g>
		<rect x="363.919" y="313.152" transform="matrix(0.5 -0.866 0.866 0.5 -93.6993 492.236)" width="31.052" height="28.226"/>
	</g>
</g>
<g>
	<g>
		<rect x="282.453" y="266.121" transform="matrix(0.5 -0.866 0.866 0.5 -93.7019 398.1691)" width="31.052" height="28.226"/>
	</g>
</g>
<g>
	<g>
		<rect x="323.173" y="289.634" transform="matrix(0.5 -0.866 0.866 0.5 -93.7051 445.1899)" width="31.052" height="28.226"/>
	</g>
</g>
<g>
	<g>
		<path d="M255.998,0L34.297,128v255.999l221.703,128l221.703-128V128L255.998,0z M240.473,467.179L65.35,366.071V163.856
			l175.123,101.108V467.179z M255.998,238.072L80.876,136.964L255.998,35.856l175.123,101.108L255.998,238.072z M271.525,467.179
			V264.963l175.122-101.108v202.216h0.001L271.525,467.179z"/>
	</g>
</g>
<g>
	<g>
		<rect x="199.914" y="264.689" transform="matrix(0.866 -0.5 0.5 0.866 -111.4352 144.5599)" width="28.226" height="31.052"/>
	</g>
</g>
<g>
	<g>
		<rect x="77.669" y="335.289" transform="matrix(0.866 -0.5 0.5 0.866 -163.1138 92.8945)" width="28.226" height="31.052"/>
	</g>
</g>
<g>
	<g>
		<rect x="159.168" y="288.238" transform="matrix(0.866 -0.5 0.5 0.866 -128.6691 127.341)" width="28.226" height="31.052"/>
	</g>
</g>
<g>
	<g>
		<rect x="118.42" y="311.756" transform="matrix(0.866 -0.5 0.5 0.866 -145.888 110.1181)" width="28.226" height="31.052"/>
	</g>
</g>
<g>
	<g>
		<rect x="240.472" y="146.373" width="31.053" height="28.227"/>
	</g>
</g>
<g>
	<g>
		<rect x="240.472" y="193.428" width="31.053" height="28.227"/>
	</g>
</g>
<g>
	<g>
		<rect x="240.472" y="99.328" width="31.053" height="28.227"/>
	</g>
</g>
<g>
	<g>
		<rect x="240.472" y="52.272" width="31.053" height="28.227"/>
	</g>
</g>
</svg>